<mxfile host="app.diagrams.net" modified="2022-02-07T21:11:21.078Z" agent="5.0 (Macintosh; Intel Mac OS X 10_15_7) AppleWebKit/537.36 (KHTML, like Gecko) Chrome/98.0.4758.80 Safari/537.36" etag="w_fU03aHKmwQ6-vb-jIW" version="16.5.3" type="github">
  <diagram id="2f404044-711c-603c-8f00-f6bb4c023d3c" name="FLEXCube Backup Strategy">
    <mxGraphModel dx="926" dy="512" grid="1" gridSize="10" guides="1" tooltips="1" connect="1" arrows="1" fold="1" page="1" pageScale="1" pageWidth="1169" pageHeight="827" background="none" math="0" shadow="0">
      <root>
        <mxCell id="0" />
        <mxCell id="1" parent="0" />
      </root>
    </mxGraphModel>
  </diagram>
</mxfile>
